<svg width="16" height="15" viewBox="0 0 16 15" fill="none" xmlns="http://www.w3.org/2000/svg">
<path fill-rule="evenodd" clip-rule="evenodd" d="M1.78613 0C1.23385 0 0.786133 0.447715 0.786133 1V14C0.786133 14.5523 1.23385 15 1.78613 15H14.7861C15.3384 15 15.7861 14.5523 15.7861 14V1C15.7861 0.447715 15.3384 0 14.7861 0H1.78613ZM7.78599 9.84375C7.78599 10.1026 7.99585 10.3125 8.25474 10.3125C8.51362 10.3125 8.72349 10.1026 8.72349 9.84375L8.72349 5.15625C8.72349 4.89737 8.51362 4.6875 8.25474 4.6875C7.99585 4.6875 7.78599 4.89737 7.78599 5.15625L7.78599 9.84375ZM4.97363 9.84375C4.97363 10.1026 5.1835 10.3125 5.44238 10.3125C5.70127 10.3125 5.91113 10.1026 5.91113 9.84375V7.03125C5.91113 6.77237 5.70127 6.5625 5.44238 6.5625C5.1835 6.5625 4.97363 6.77237 4.97363 7.03125V9.84375ZM11.0671 10.3125C10.8082 10.3125 10.5983 10.1026 10.5983 9.84375V6.09375C10.5983 5.83487 10.8082 5.625 11.0671 5.625C11.326 5.625 11.5358 5.83487 11.5358 6.09375V9.84375C11.5358 10.1026 11.326 10.3125 11.0671 10.3125Z" fill="#6ECFBC"/>
</svg>
