<svg width="17" height="15" viewBox="0 0 17 15" fill="none" xmlns="http://www.w3.org/2000/svg">
<path d="M1.11328 3.60388C1.11328 3.20606 1.27191 2.82453 1.55428 2.54322C1.83664 2.26192 2.21962 2.10388 2.61894 2.10388H14.6642C15.0636 2.10388 15.4465 2.26192 15.7289 2.54322C16.0113 2.82453 16.1699 3.20606 16.1699 3.60388V11.1039C16.1699 11.5017 16.0113 11.8832 15.7289 12.1645C15.4465 12.4458 15.0636 12.6039 14.6642 12.6039H2.61894C2.21962 12.6039 1.83664 12.4458 1.55428 12.1645C1.27191 11.8832 1.11328 11.5017 1.11328 11.1039V3.60388Z" stroke="#333333" stroke-linecap="round" stroke-linejoin="round"/>
<path d="M8.6413 9.60391C9.88863 9.60391 10.8998 8.59655 10.8998 7.35391C10.8998 6.11127 9.88863 5.10391 8.6413 5.10391C7.39397 5.10391 6.38281 6.11127 6.38281 7.35391C6.38281 8.59655 7.39397 9.60391 8.6413 9.60391Z" stroke="#333333" stroke-linecap="round" stroke-linejoin="round"/>
</svg>
