<svg width="12" height="11" viewBox="0 0 12 11" fill="none" xmlns="http://www.w3.org/2000/svg">
<path d="M5.97656 1.75L5.71875 1.46875C4.94531 0.718746 3.84375 0.367184 2.78906 0.554684C1.17188 0.812497 0 2.21875 0 3.85937V3.97656C0 4.96093 0.398438 5.89843 1.10156 6.55468L5.34375 10.5156C5.50781 10.6797 5.74219 10.75 6 10.75C6.23438 10.75 6.46875 10.6797 6.63281 10.5156L10.875 6.55468C11.5781 5.89843 12 4.96093 12 3.97656V3.85937C12 2.21875 10.8047 0.812497 9.1875 0.554684C8.13281 0.367184 7.03125 0.718746 6.25781 1.49218L5.97656 1.75Z" fill="#ADB8C9"/>
</svg>
