<svg width="12" height="12" viewBox="0 0 12 12" fill="none" xmlns="http://www.w3.org/2000/svg">
<path d="M0.375581 5.51692C0.625083 5.28467 0.928998 5.15992 1.286 5.14267H2.14333C2.50033 5.15992 2.80425 5.286 3.05375 5.51692C3.286 5.76775 3.41075 6.07034 3.42933 6.42734V10.7127C3.41075 11.0697 3.286 11.3736 3.05375 11.6231C2.80292 11.8553 2.50033 11.9801 2.14333 11.9987H1.286C0.928998 11.9801 0.625083 11.8553 0.375581 11.6231C0.143331 11.3736 0.01858 11.0697 0 10.7127V6.42867C0.0172528 6.07167 0.143331 5.76775 0.375581 5.51825V5.51692ZM4.66092 0.374253C4.91042 0.142004 5.21433 0.0172528 5.57133 0H6.42867C6.78567 0.0172528 7.08958 0.143331 7.33908 0.374253C7.57133 0.625083 7.69608 0.927671 7.71466 1.28467V10.714C7.69608 11.071 7.57133 11.3749 7.33908 11.6244C7.08825 11.8567 6.78567 11.9814 6.42867 12H5.57133C5.21433 11.9814 4.91042 11.8567 4.66092 11.6244C4.42867 11.3749 4.30392 11.071 4.28534 10.714V1.286C4.30259 0.928998 4.42867 0.625083 4.66092 0.375581V0.374253ZM11.6244 2.08892C11.8567 2.33842 11.9814 2.64234 12 2.99934V10.7127C11.9827 11.0697 11.8567 11.3736 11.6244 11.6231C11.3736 11.8553 11.071 11.9801 10.714 11.9987H9.85667C9.49967 11.9801 9.19575 11.8553 8.94625 11.6231C8.714 11.3736 8.58925 11.0697 8.57067 10.7127V2.99934C8.58792 2.64234 8.714 2.33842 8.94625 2.08892C9.19575 1.85667 9.49967 1.73192 9.85667 1.71334H10.714C11.071 1.73059 11.3749 1.85667 11.6244 2.08892Z" fill="#ADB8C9"/>
</svg>
