<svg width="10" height="11" viewBox="0 0 10 11" fill="none" xmlns="http://www.w3.org/2000/svg">
<path d="M0.312984 5.05718C0.520902 4.84428 0.774165 4.72993 1.07167 4.71411H1.78611C2.08361 4.72993 2.33687 4.8455 2.54479 5.05718C2.73833 5.2871 2.84229 5.56448 2.85777 5.89173V9.81995C2.84229 10.1472 2.73833 10.4258 2.54479 10.6545C2.33577 10.8674 2.08361 10.9818 1.78611 10.9988H1.07167C0.774165 10.9818 0.520902 10.8674 0.312984 10.6545C0.119443 10.4258 0.0154833 10.1472 0 9.81995V5.89294C0.0143773 5.56569 0.119443 5.28711 0.312984 5.05839V5.05718ZM3.8841 0.343066C4.09201 0.13017 4.34528 0.0158151 4.64278 0H5.35722C5.65472 0.0158151 5.90798 0.131387 6.1159 0.343066C6.30944 0.572993 6.4134 0.850365 6.42889 1.17762V9.82117C6.4134 10.1484 6.30944 10.427 6.1159 10.6557C5.90688 10.8686 5.65472 10.983 5.35722 11H4.64278C4.34528 10.983 4.09201 10.8686 3.8841 10.6557C3.69056 10.427 3.5866 10.1484 3.57111 9.82117V1.17883C3.58549 0.851581 3.69056 0.572993 3.8841 0.344282V0.343066ZM9.68702 1.91484C9.88056 2.14355 9.98452 2.42214 10 2.74939V9.81995C9.98562 10.1472 9.88056 10.4258 9.68702 10.6545C9.47799 10.8674 9.22584 10.9818 8.92834 10.9988H8.21389C7.91639 10.9818 7.66313 10.8674 7.45521 10.6545C7.26167 10.4258 7.15771 10.1472 7.14223 9.81995V2.74939C7.1566 2.42214 7.26167 2.14355 7.45521 1.91484C7.66313 1.70195 7.91639 1.58759 8.21389 1.57056H8.92834C9.22584 1.58637 9.4791 1.70195 9.68702 1.91484Z" fill="white"/>
</svg>
