<svg width="15" height="15" viewBox="0 0 15 15" fill="none" xmlns="http://www.w3.org/2000/svg">
<path fill-rule="evenodd" clip-rule="evenodd" d="M1 0C0.447715 0 0 0.447715 0 1V14C0 14.5523 0.447715 15 1 15H14C14.5523 15 15 14.5523 15 14V1C15 0.447715 14.5523 0 14 0H1ZM5.12362 7.03115C4.86474 7.03115 4.65487 7.24102 4.65487 7.4999C4.65487 7.75878 4.86474 7.96865 5.12362 7.96865H9.81112C10.07 7.96865 10.2799 7.75878 10.2799 7.4999C10.2799 7.24102 10.07 7.03115 9.81112 7.03115H5.12362Z" fill="#00A3FF"/>
</svg>
