<svg width="16" height="15" viewBox="0 0 16 15" fill="none" xmlns="http://www.w3.org/2000/svg">
<path fill-rule="evenodd" clip-rule="evenodd" d="M1.78613 0C1.23385 0 0.786133 0.447715 0.786133 1V14C0.786133 14.5523 1.23385 15 1.78613 15H14.7861C15.3384 15 15.7861 14.5523 15.7861 14V1C15.7861 0.447715 15.3384 0 14.7861 0H1.78613ZM12.4315 5.93758C12.6104 5.74744 12.6001 5.44944 12.4084 5.27198C12.2167 5.09452 11.9162 5.10479 11.7373 5.29493L9.89921 7.24823C9.7115 7.4477 9.3927 7.4477 9.20499 7.24823L8.56759 6.57087C8.00447 5.97245 7.04806 5.97245 6.48493 6.57087L4.14039 9.06237C3.96147 9.25251 3.97183 9.55051 4.16353 9.72797C4.35524 9.90543 4.65569 9.89516 4.83461 9.70502L7.17915 7.21352C7.36686 7.01405 7.68566 7.01405 7.87337 7.21352L8.51077 7.89087C9.0739 8.4893 10.0303 8.4893 10.5934 7.89087L12.4315 5.93758Z" fill="#6ECFBC"/>
</svg>
