<svg width="17" height="17" viewBox="0 0 17 17" fill="none" xmlns="http://www.w3.org/2000/svg">
<path d="M5.63026 2.875C5.63026 2.37772 5.82855 1.90081 6.18151 1.54917C6.53447 1.19754 7.01318 1 7.51234 1H9.39441C9.89357 1 10.3723 1.19754 10.7252 1.54917C11.0782 1.90081 11.2765 2.37772 11.2765 2.875V4.75C11.2765 5.24728 11.0782 5.72419 10.7252 6.07582C10.3723 6.42746 9.89357 6.625 9.39441 6.625H7.51234C7.01318 6.625 6.53447 6.42746 6.18151 6.07582C5.82855 5.72419 5.63026 5.24728 5.63026 4.75V2.875ZM1.11328 12.25C1.11328 11.7527 1.31157 11.2758 1.66453 10.9242C2.01749 10.5725 2.4962 10.375 2.99536 10.375H4.87743C5.37659 10.375 5.8553 10.5725 6.20826 10.9242C6.56122 11.2758 6.75951 11.7527 6.75951 12.25V14.125C6.75951 14.6223 6.56122 15.0992 6.20826 15.4508C5.8553 15.8025 5.37659 16 4.87743 16H2.99536C2.4962 16 2.01749 15.8025 1.66453 15.4508C1.31157 15.0992 1.11328 14.6223 1.11328 14.125V12.25ZM10.5237 12.25C10.5237 11.7527 10.7219 11.2758 11.0749 10.9242C11.4279 10.5725 11.9066 10.375 12.4057 10.375H14.2878C14.787 10.375 15.2657 10.5725 15.6186 10.9242C15.9716 11.2758 16.1699 11.7527 16.1699 12.25V14.125C16.1699 14.6223 15.9716 15.0992 15.6186 15.4508C15.2657 15.8025 14.787 16 14.2878 16H12.4057C11.9066 16 11.4279 15.8025 11.0749 15.4508C10.7219 15.0992 10.5237 14.6223 10.5237 14.125V12.25Z" stroke="#333333" stroke-linecap="round" stroke-linejoin="round"/>
</svg>
