<svg width="13" height="13" viewBox="0 0 13 13" fill="none" xmlns="http://www.w3.org/2000/svg">
<path d="M11.6494 4.35193H1.14941C0.950502 4.35193 0.759736 4.40812 0.619084 4.50814C0.478432 4.60816 0.399414 4.74381 0.399414 4.88526V11.8186C0.399414 11.96 0.478432 12.0957 0.619084 12.1957C0.759736 12.2957 0.950502 12.3519 1.14941 12.3519H11.6494C11.8483 12.3519 12.0391 12.2957 12.1797 12.1957C12.3204 12.0957 12.3994 11.96 12.3994 11.8186V4.88526C12.3994 4.74381 12.3204 4.60816 12.1797 4.50814C12.0391 4.40812 11.8483 4.35193 11.6494 4.35193Z" stroke="#333333" stroke-width="0.7" stroke-linecap="round" stroke-linejoin="round"/>
<path d="M3.39941 6.35193V3.35193C3.39941 2.95796 3.47701 2.56786 3.62778 2.20388C3.77854 1.8399 3.99952 1.50918 4.27809 1.23061C4.55667 0.952033 4.88739 0.731054 5.25136 0.58029C5.61534 0.429526 6.00545 0.351929 6.39941 0.351929C6.79338 0.351929 7.18349 0.429526 7.54746 0.58029C7.91144 0.731054 8.24216 0.952033 8.52073 1.23061C8.79931 1.50918 9.02029 1.8399 9.17105 2.20388C9.32182 2.56786 9.39941 2.95796 9.39941 3.35193V6.35193" stroke="#333333" stroke-width="0.7" stroke-linecap="round" stroke-linejoin="round"/>
</svg>
