<svg width="13" height="13" viewBox="0 0 13 13" fill="none" xmlns="http://www.w3.org/2000/svg">
<path d="M2.42588 0.944885V0.594885V0.944885ZM3.85176 0.944885V0.594885V0.944885ZM1 3.79665H0.65H1ZM2.42588 8.07429V8.42429V8.07429ZM1 10.9261H0.65H1ZM8.53918 1.36252L8.78667 1.61L8.53918 1.36252ZM8.53918 4.8049L8.78667 4.55741L8.53918 4.8049ZM8.53918 8.49192L8.78667 8.73941L8.53918 8.49192ZM8.53918 11.9343L8.78667 11.6868L8.53918 11.9343ZM1.35 2.37077C1.35 2.08542 1.46335 1.81177 1.66512 1.61L1.17014 1.11503C0.837101 1.44807 0.65 1.89977 0.65 2.37077H1.35ZM1.66512 1.61C1.86688 1.40824 2.14054 1.29489 2.42588 1.29489V0.594885C1.95489 0.594885 1.50319 0.781986 1.17014 1.11503L1.66512 1.61ZM2.42588 1.29489H3.85176V0.594885H2.42588V1.29489ZM3.85176 1.29489C4.1371 1.29489 4.41076 1.40824 4.61252 1.61L5.1075 1.11503C4.77446 0.781986 4.32275 0.594885 3.85176 0.594885V1.29489ZM4.61252 1.61C4.81429 1.81177 4.92764 2.08542 4.92764 2.37077H5.62764C5.62764 1.89977 5.44054 1.44807 5.1075 1.11503L4.61252 1.61ZM4.92764 2.37077V3.79665H5.62764V2.37077H4.92764ZM4.92764 3.79665C4.92764 4.08199 4.81429 4.35564 4.61252 4.55741L5.1075 5.05238C5.44054 4.71934 5.62764 4.26764 5.62764 3.79665H4.92764ZM4.61252 4.55741C4.41076 4.75918 4.1371 4.87253 3.85176 4.87253V5.57253C4.32275 5.57253 4.77446 5.38543 5.1075 5.05238L4.61252 4.55741ZM3.85176 4.87253H2.42588V5.57253H3.85176V4.87253ZM2.42588 4.87253C2.14054 4.87253 1.86688 4.75918 1.66512 4.55741L1.17014 5.05238C1.50319 5.38543 1.95489 5.57253 2.42588 5.57253V4.87253ZM1.66512 4.55741C1.46335 4.35564 1.35 4.08199 1.35 3.79665H0.65C0.65 4.26764 0.837101 4.71934 1.17014 5.05238L1.66512 4.55741ZM1.35 3.79665V2.37077H0.65V3.79665H1.35ZM1.35 9.50017C1.35 9.21483 1.46335 8.94117 1.66512 8.73941L1.17014 8.24443C0.837101 8.57748 0.65 9.02918 0.65 9.50017H1.35ZM1.66512 8.73941C1.86689 8.53764 2.14054 8.42429 2.42588 8.42429V7.72429C1.95489 7.72429 1.50319 7.91139 1.17014 8.24443L1.66512 8.73941ZM2.42588 8.42429H3.85176V7.72429H2.42588V8.42429ZM3.85176 8.42429C4.1371 8.42429 4.41076 8.53764 4.61252 8.73941L5.1075 8.24443C4.77446 7.91139 4.32275 7.72429 3.85176 7.72429V8.42429ZM4.61252 8.73941C4.81429 8.94117 4.92764 9.21483 4.92764 9.50017H5.62764C5.62764 9.02918 5.44054 8.57748 5.1075 8.24443L4.61252 8.73941ZM4.92764 9.50017V10.9261H5.62764V9.50017H4.92764ZM4.92764 10.9261C4.92764 11.2114 4.81429 11.485 4.61252 11.6868L5.1075 12.1818C5.44054 11.8487 5.62764 11.397 5.62764 10.9261H4.92764ZM4.61252 11.6868C4.41076 11.8886 4.1371 12.0019 3.85176 12.0019V12.7019C4.32275 12.7019 4.77446 12.5148 5.1075 12.1818L4.61252 11.6868ZM3.85176 12.0019H2.42588V12.7019H3.85176V12.0019ZM2.42588 12.0019C2.14054 12.0019 1.86689 11.8886 1.66512 11.6868L1.17014 12.1818C1.50319 12.5148 1.95489 12.7019 2.42588 12.7019V12.0019ZM1.66512 11.6868C1.46335 11.485 1.35 11.2114 1.35 10.9261H0.65C0.65 11.397 0.837101 11.8487 1.17014 12.1818L1.66512 11.6868ZM1.35 10.9261V9.50017H0.65V10.9261H1.35ZM8.47155 2.37077C8.47155 2.08542 8.5849 1.81177 8.78667 1.61L8.29169 1.11503C7.95865 1.44807 7.77155 1.89977 7.77155 2.37077H8.47155ZM8.78667 1.61C8.98843 1.40824 9.26209 1.29489 9.54743 1.29489V0.594885C9.07644 0.594885 8.62473 0.781986 8.29169 1.11503L8.78667 1.61ZM9.54743 1.29489H10.9733V0.594885H9.54743V1.29489ZM10.9733 1.29489C11.2587 1.29489 11.5323 1.40824 11.7341 1.61L12.229 1.11503C11.896 0.781987 11.4443 0.594885 10.9733 0.594885V1.29489ZM11.7341 1.61C11.9358 1.81177 12.0492 2.08542 12.0492 2.37077H12.7492C12.7492 1.89977 12.5621 1.44807 12.229 1.11503L11.7341 1.61ZM12.0492 2.37077V3.79665H12.7492V2.37077H12.0492ZM12.0492 3.79665C12.0492 4.08199 11.9358 4.35564 11.7341 4.55741L12.229 5.05238C12.5621 4.71934 12.7492 4.26764 12.7492 3.79665H12.0492ZM11.7341 4.55741C11.5323 4.75918 11.2587 4.87253 10.9733 4.87253V5.57253C11.4443 5.57253 11.896 5.38543 12.229 5.05238L11.7341 4.55741ZM10.9733 4.87253H9.54743V5.57253H10.9733V4.87253ZM9.54743 4.87253C9.26209 4.87253 8.98843 4.75918 8.78667 4.55741L8.29169 5.05238C8.62473 5.38543 9.07644 5.57253 9.54743 5.57253V4.87253ZM8.78667 4.55741C8.5849 4.35564 8.47155 4.08199 8.47155 3.79665H7.77155C7.77155 4.26764 7.95865 4.71934 8.29169 5.05238L8.78667 4.55741ZM8.47155 3.79665V2.37077H7.77155V3.79665H8.47155ZM8.47155 9.50017C8.47155 9.21483 8.5849 8.94117 8.78667 8.73941L8.29169 8.24443C7.95865 8.57748 7.77155 9.02918 7.77155 9.50017H8.47155ZM8.78667 8.73941C8.98843 8.53764 9.26209 8.42429 9.54743 8.42429V7.72429C9.07644 7.72429 8.62473 7.91139 8.29169 8.24443L8.78667 8.73941ZM9.54743 8.42429H10.9733V7.72429H9.54743V8.42429ZM10.9733 8.42429C11.2587 8.42429 11.5323 8.53764 11.7341 8.73941L12.229 8.24443C11.896 7.91139 11.4443 7.72429 10.9733 7.72429V8.42429ZM11.7341 8.73941C11.9358 8.94117 12.0492 9.21483 12.0492 9.50017H12.7492C12.7492 9.02918 12.5621 8.57748 12.229 8.24443L11.7341 8.73941ZM12.0492 9.50017V10.9261H12.7492V9.50017H12.0492ZM12.0492 10.9261C12.0492 11.2114 11.9358 11.485 11.7341 11.6868L12.229 12.1818C12.5621 11.8487 12.7492 11.397 12.7492 10.9261H12.0492ZM11.7341 11.6868C11.5323 11.8886 11.2587 12.0019 10.9733 12.0019V12.7019C11.4443 12.7019 11.896 12.5148 12.229 12.1818L11.7341 11.6868ZM10.9733 12.0019H9.54743V12.7019H10.9733V12.0019ZM9.54743 12.0019C9.26209 12.0019 8.98843 11.8886 8.78667 11.6868L8.29169 12.1818C8.62473 12.5148 9.07644 12.7019 9.54743 12.7019V12.0019ZM8.78667 11.6868C8.5849 11.485 8.47155 11.2114 8.47155 10.9261H7.77155C7.77155 11.397 7.95865 11.8487 8.29169 12.1818L8.78667 11.6868ZM8.47155 10.9261V9.50017H7.77155V10.9261H8.47155Z" fill="#333333"/>
</svg>
