<svg width="91" height="11" viewBox="0 0 91 11" fill="none" xmlns="http://www.w3.org/2000/svg">
<path d="M15.4746 9.82337H19.8508L22.1182 4.77952C22.1799 4.6473 22.2262 4.55476 22.257 4.50187C22.2879 4.44458 22.3121 4.3939 22.3298 4.34983H22.343C22.365 4.3939 22.3915 4.44458 22.4223 4.50187C22.4576 4.55916 22.5038 4.65171 22.5611 4.77952L24.8153 9.82337H29.3634L24.4848 0.138909H20.4259L15.4746 9.82337ZM18.2907 8.51448H26.5208L25.4764 6.05535H19.3814L18.2907 8.51448Z" fill="#333333"/>
<path d="M29.4493 7.27822C29.4978 8.2081 30.0443 8.8978 31.0887 9.34732C32.1332 9.79684 33.5897 10.0216 35.4583 10.0216C37.3181 10.0216 38.7305 9.72412 39.6957 9.12917C40.6652 8.52981 41.15 7.67044 41.15 6.55106C41.15 5.49777 40.7688 4.78604 40.0064 4.41585C39.244 4.04566 38.0783 3.77022 36.5094 3.58953C34.8303 3.39562 33.8828 3.27002 33.6668 3.21273C33.4553 3.15103 33.3495 3.0695 33.3495 2.96814C33.3495 2.84033 33.4707 2.74338 33.7131 2.67727C33.9599 2.61117 34.4094 2.57811 35.0617 2.57811C35.921 2.57811 36.4829 2.63761 36.7474 2.7566C37.0162 2.87118 37.1726 3.0056 37.2167 3.15984L37.2564 3.30528H40.7203L40.6939 2.89542C40.6278 1.8774 40.1187 1.14142 39.1668 0.687497C38.2149 0.229166 36.8201 0 34.9823 0C33.2151 0 31.871 0.279847 30.9499 0.83954C30.0288 1.39923 29.5683 2.20792 29.5683 3.26561C29.5683 4.21312 29.9385 4.92266 30.6789 5.39421C31.4193 5.86136 32.6268 6.19188 34.3015 6.38579C35.8351 6.56207 36.7341 6.68988 36.9986 6.7692C37.263 6.84853 37.3952 6.95871 37.3952 7.09973C37.3952 7.25839 37.2498 7.37517 36.9589 7.45009C36.6724 7.5206 36.1436 7.55586 35.3724 7.55586C34.5218 7.55586 33.9269 7.51179 33.5875 7.42365C33.2526 7.3311 33.0521 7.14601 32.986 6.86836L32.9331 6.6436H29.4163L29.4493 7.27822Z" fill="#333333"/>
<path d="M42.0887 9.82337H46.055V7.97902H49.704C51.0967 7.97902 52.1081 7.62866 52.7383 6.92794C53.3729 6.22282 53.6902 5.28412 53.6902 4.11185C53.6902 2.86907 53.3619 1.90613 52.7052 1.22304C52.053 0.539949 51.0812 0.198404 49.79 0.198404H42.0887V9.82337ZM46.055 5.44718V2.96822H48.5803C49.0033 2.96822 49.303 3.06518 49.4793 3.25909C49.6556 3.453 49.7437 3.7659 49.7437 4.19779C49.7437 4.60323 49.6556 4.91393 49.4793 5.12987C49.3074 5.34141 49.0077 5.44718 48.5803 5.44718H46.055Z" fill="#333333"/>
<path d="M54.8206 9.82337H64.9017V6.98083H58.5027V6.29333H64.2539V3.79454H58.5027V3.17315H64.7695V0.198404H54.8206V9.82337Z" fill="#333333"/>
<path d="M65.7941 5.05055C65.7941 6.65912 66.3957 7.89088 67.5988 8.74585C68.8063 9.5964 70.5053 10.0217 72.6955 10.0217C74.877 10.0217 76.4856 9.70217 77.5213 9.06315C78.5569 8.42413 79.1386 7.40831 79.2664 6.01569L79.3061 5.57939H75.3728L75.3199 5.94958C75.2538 6.47402 75.0159 6.85964 74.606 7.10643C74.2006 7.35322 73.5858 7.47662 72.7617 7.47662C71.9111 7.47662 71.25 7.26729 70.7785 6.84862C70.3069 6.42554 70.0712 5.82178 70.0712 5.03733V4.89851C70.0712 4.17575 70.3069 3.61606 70.7785 3.21943C71.25 2.81839 71.9177 2.61787 72.7815 2.61787C73.5792 2.61787 74.1763 2.74567 74.5729 3.00128C74.974 3.25248 75.2164 3.6447 75.3001 4.17796L75.353 4.50848H79.3061L79.2598 4.10524C79.0968 2.67736 78.4952 1.6373 77.4551 0.985059C76.4151 0.328411 74.8175 8.71809e-05 72.6625 8.71809e-05C70.622 8.71809e-05 68.9672 0.412145 67.698 1.23626C66.4287 2.06038 65.7941 3.28773 65.7941 4.91834V5.05055Z" fill="#333333"/>
<path d="M79.5044 3.27892H83.2394V9.82337H87.2718V3.27892H91.0002V0.198404H79.5044V3.27892Z" fill="#333333"/>
<path d="M0 9.71743H4.42267L6.71417 4.65641C6.77652 4.52375 6.82329 4.43088 6.85447 4.37782C6.88564 4.32033 6.91014 4.26948 6.92796 4.22526H6.94132C6.96359 4.26948 6.99031 4.32033 7.02149 4.37782C7.05712 4.43531 7.10388 4.52817 7.16178 4.65641L9.43992 9.71743H14.0363L9.10589 0H5.00389L0 9.71743ZM2.40617 9.71743H11.9719L7.02149 2.46809L2.40617 9.71743Z" fill="#6ECFBC"/>
</svg>
