<svg width="17" height="15" viewBox="0 0 17 15" fill="none" xmlns="http://www.w3.org/2000/svg">
<path d="M15.4479 8.71201L15.0968 8.35601L15.4479 8.71201ZM15.4479 7.28799L15.0968 7.644L15.4479 7.28799ZM11.3918 3.28799L11.7429 2.93198L11.3918 3.28799ZM11.3918 12.712L11.0407 12.356L11.3918 12.712ZM0.613281 4L0.613281 12H1.61328L1.61328 4H0.613281ZM2.11328 13.5H10.6897V12.5H2.11328V13.5ZM10.6897 2.5L2.11328 2.5V3.5L10.6897 3.5V2.5ZM11.7429 13.068L15.799 9.06802L15.0968 8.35601L11.0407 12.356L11.7429 13.068ZM15.799 6.93199L11.7429 2.93198L11.0407 3.64399L15.0968 7.644L15.799 6.93199ZM15.799 9.06802C16.3946 8.48059 16.3946 7.51941 15.799 6.93199L15.0968 7.644C15.2954 7.83981 15.2954 8.1602 15.0968 8.35601L15.799 9.06802ZM10.6897 3.5C10.8211 3.5 10.9472 3.55173 11.0407 3.64399L11.7429 2.93198C11.4622 2.65518 11.0839 2.5 10.6897 2.5V3.5ZM10.6897 13.5C11.0839 13.5 11.4622 13.3448 11.7429 13.068L11.0407 12.356C10.9472 12.4483 10.8211 12.5 10.6897 12.5V13.5ZM0.613281 12C0.613281 12.8284 1.28485 13.5 2.11328 13.5V12.5C1.83714 12.5 1.61328 12.2761 1.61328 12H0.613281ZM1.61328 4C1.61328 3.72386 1.83714 3.5 2.11328 3.5V2.5C1.28486 2.5 0.613281 3.17157 0.613281 4H1.61328Z" fill="#333333"/>
</svg>
