<svg width="194" height="183" viewBox="0 0 194 183" fill="none" stroke-linecap="round" xmlns="http://www.w3.org/2000/svg">
<path d="M56.4897 179.601C55.2738 182.08 52.2705 183.116 49.8572 181.774C32.2916 172.006 18.1541 156.997 9.46088 138.784C0.0481256 119.064 -2.43046 96.7433 2.42672 75.4386C7.28389 54.1339 19.1923 35.0933 36.2224 21.4018C53.2525 7.71036 74.4067 0.170129 96.2574 0.00284258C118.108 -0.164444 139.375 7.05101 156.613 20.4801C173.851 33.9093 186.049 52.7653 191.232 73.9931C196.415 95.221 194.278 117.577 185.169 137.439C176.755 155.782 162.849 171.006 145.435 181.042C143.043 182.421 140.024 181.431 138.77 178.971L131.521 164.745C130.267 162.284 131.256 159.288 133.622 157.865C145.835 150.516 155.592 139.639 161.566 126.613C168.237 112.068 169.802 95.6972 166.006 80.1521C162.211 64.6069 153.278 50.7987 140.655 40.9645C128.031 31.1304 112.457 25.8465 96.4562 25.969C80.4549 26.0915 64.9637 31.6132 52.4926 41.6395C40.0214 51.6657 31.3009 65.6092 27.744 81.2106C24.1871 96.812 26.0021 113.157 32.8951 127.598C39.0681 140.531 48.9896 151.258 61.3137 158.418C63.7014 159.805 64.7363 162.786 63.5204 165.265L56.4897 179.601Z" fill="#ECF1F9" stroke-linecap="round"/>
</svg>
