<svg width="252" height="240" viewBox="0 0 252 240"  fill="none" xmlns="http://www.w3.org/2000/svg">
<path d="M72.2914 236.288C71.068 238.777 68.0465 239.804 65.6164 238.466C42.2228 225.592 23.4401 205.545 12.0353 181.167C-0.0848463 155.261 -3.16077 125.985 3.30698 98.0945C9.77473 70.2038 25.4063 45.3358 47.6636 27.5283C69.9209 9.72082 97.4968 0.0196557 125.914 2.98135e-05C154.331 -0.019596 181.92 9.64347 204.201 27.4202C226.483 45.1969 242.148 70.0433 248.654 97.925C255.159 125.807 252.123 155.086 240.038 181.01C228.667 205.403 209.911 225.476 186.535 238.383C184.107 239.723 181.084 238.701 179.857 236.213L173.064 222.437C171.848 219.971 172.858 216.998 175.252 215.646C193.57 205.307 208.267 189.435 217.231 170.208C226.899 149.469 229.327 126.045 224.123 103.74C218.918 81.4347 206.386 61.5575 188.561 47.3362C170.736 33.1148 148.664 25.3843 125.931 25.4C103.197 25.4157 81.1367 33.1767 63.3309 47.4226C45.5251 61.6686 33.0198 81.5631 27.8456 103.876C22.6714 126.188 25.1321 149.608 34.8282 170.334C43.8177 189.548 58.5369 205.4 76.8686 215.714C79.2646 217.062 80.2788 220.035 79.0663 222.502L72.2914 236.288Z"  fill="#ECF1F9" />
</svg>
