<svg width="9" height="8" viewBox="0 0 9 8" fill="none" xmlns="http://www.w3.org/2000/svg">
<path d="M4.48242 0.972176L4.28906 0.752556C3.70898 0.166904 2.88281 -0.10762 2.0918 0.0387929C0.878906 0.240111 0 1.33821 0 2.61932V2.71083C0 3.4795 0.298828 4.21156 0.826172 4.72401L4.00781 7.81698C4.13086 7.9451 4.30664 8 4.5 8C4.67578 8 4.85156 7.9451 4.97461 7.81698L8.15625 4.72401C8.68359 4.21156 9 3.4795 9 2.71083V2.61932C9 1.33821 8.10352 0.240111 6.89062 0.0387929C6.09961 -0.10762 5.27344 0.166904 4.69336 0.770858L4.48242 0.972176Z" fill="white"/>
</svg>
