<svg width="17" height="17" viewBox="0 0 17 17" fill="none" xmlns="http://www.w3.org/2000/svg">
<path d="M13.3468 10.375V16M10.5237 13.1875H16.1699M2.99536 6.625H4.87743C5.37659 6.625 5.8553 6.42746 6.20826 6.07582C6.56122 5.72419 6.75951 5.24728 6.75951 4.75V2.875C6.75951 2.37772 6.56122 1.90081 6.20826 1.54917C5.8553 1.19754 5.37659 1 4.87743 1H2.99536C2.4962 1 2.01749 1.19754 1.66453 1.54917C1.31157 1.90081 1.11328 2.37772 1.11328 2.875V4.75C1.11328 5.24728 1.31157 5.72419 1.66453 6.07582C2.01749 6.42746 2.4962 6.625 2.99536 6.625ZM2.99536 16H4.87743C5.37659 16 5.8553 15.8025 6.20826 15.4508C6.56122 15.0992 6.75951 14.6223 6.75951 14.125V12.25C6.75951 11.7527 6.56122 11.2758 6.20826 10.9242C5.8553 10.5725 5.37659 10.375 4.87743 10.375H2.99536C2.4962 10.375 2.01749 10.5725 1.66453 10.9242C1.31157 11.2758 1.11328 11.7527 1.11328 12.25V14.125C1.11328 14.6223 1.31157 15.0992 1.66453 15.4508C2.01749 15.8025 2.4962 16 2.99536 16ZM12.4057 6.625H14.2878C14.787 6.625 15.2657 6.42746 15.6186 6.07582C15.9716 5.72419 16.1699 5.24728 16.1699 4.75V2.875C16.1699 2.37772 15.9716 1.90081 15.6186 1.54917C15.2657 1.19754 14.787 1 14.2878 1H12.4057C11.9066 1 11.4279 1.19754 11.0749 1.54917C10.7219 1.90081 10.5237 2.37772 10.5237 2.875V4.75C10.5237 5.24728 10.7219 5.72419 11.0749 6.07582C11.4279 6.42746 11.9066 6.625 12.4057 6.625Z" stroke="#333333" stroke-linecap="round" stroke-linejoin="round"/>
</svg>
