<svg width="14" height="13" viewBox="0 0 14 13" fill="none" xmlns="http://www.w3.org/2000/svg">
<path d="M13 11.1667V6.52874C13 6.20606 12.9334 5.88678 12.8041 5.59044C12.6748 5.29411 12.4857 5.02696 12.2482 4.80536L7.8244 0.675911C7.6016 0.467855 7.30661 0.351929 7 0.351929C6.69339 0.351929 6.3984 0.467855 6.1756 0.675911L1.7518 4.80536C1.51433 5.02696 1.32517 5.29411 1.1959 5.59044C1.06663 5.88678 0.999965 6.20606 1 6.52874V11.1667C1 11.481 1.12643 11.7825 1.35147 12.0048C1.57652 12.2271 1.88174 12.3519 2.2 12.3519H11.8C12.1183 12.3519 12.4235 12.2271 12.6485 12.0048C12.8736 11.7825 13 11.481 13 11.1667Z" stroke="#333333" stroke-width="0.7" stroke-linecap="round" stroke-linejoin="round" />
</svg>
