<svg width="12" height="13" viewBox="0 0 12 13" fill="none" xmlns="http://www.w3.org/2000/svg">
<circle cx="6" cy="6.85193" r="5.65" stroke="#333333" stroke-width="0.7"/>
<path d="M5.66543 9.42736C5.66543 9.54218 5.69532 9.64232 5.7551 9.72776C5.81736 9.81054 5.90703 9.85193 6.02409 9.85193C6.13866 9.85193 6.22708 9.81054 6.28934 9.72776C6.35161 9.64499 6.38274 9.54485 6.38274 9.42736C6.38274 9.30987 6.35161 9.20974 6.28934 9.12696C6.22708 9.04419 6.13866 9.0028 6.02409 9.0028C5.90952 9.0028 5.8211 9.04419 5.75883 9.12696C5.69657 9.20974 5.66543 9.30987 5.66543 9.42736ZM4.64551 5.406H5.14987V5.32189C5.14987 5.02015 5.23579 4.78117 5.40765 4.60493C5.57951 4.42603 5.82982 4.33657 6.15858 4.33657C6.48735 4.33657 6.73268 4.42603 6.89457 4.60493C7.05896 4.78384 7.14115 5.01081 7.14115 5.28584C7.14115 5.57155 7.07888 5.80921 6.95435 5.99879C6.82982 6.18571 6.65423 6.39398 6.42758 6.62362C6.19594 6.84792 6.02533 7.06555 5.91574 7.27649C5.80616 7.48477 5.75136 7.74779 5.75136 8.06555V8.1056H6.25946V8.06555C6.25946 7.86528 6.29806 7.6797 6.37527 7.5088C6.45248 7.33524 6.61437 7.12563 6.86095 6.87997C7.08013 6.66368 7.26568 6.43404 7.41761 6.19105C7.56954 5.94539 7.64551 5.64365 7.64551 5.28584C7.64551 4.87997 7.5135 4.53951 7.24949 4.26448C6.98797 3.98945 6.62434 3.85193 6.15858 3.85193C5.69034 3.85193 5.32048 3.98945 5.04899 4.26448C4.78 4.53684 4.64551 4.88931 4.64551 5.32189V5.406Z" fill="#333333"/>
</svg>
