<svg width="14" height="14" viewBox="0 0 14 14" fill="none" xmlns="http://www.w3.org/2000/svg">
<path d="M6.5128 1.01754C6.88808 0.308827 7.90306 0.307989 8.27952 1.01608L9.50029 3.31232C9.63974 3.57462 9.88859 3.76134 10.1794 3.8219L12.7146 4.34977C13.4658 4.50618 13.7683 5.41543 13.2604 5.99063L11.4506 8.04038C11.2634 8.25246 11.1747 8.53394 11.2067 8.81504L11.516 11.5402C11.6051 12.3246 10.7927 12.898 10.0834 12.5515L7.83378 11.4523C7.55676 11.3169 7.2328 11.3169 6.95578 11.4523L4.70972 12.5497C3.99967 12.8966 3.18673 12.3217 3.27731 11.5366L3.59124 8.81604C3.62374 8.53436 3.53513 8.25212 3.34746 8.03956L1.53843 5.99063C1.03057 5.41543 1.333 4.50618 2.08421 4.34977L4.61842 3.8221C4.90981 3.76143 5.15904 3.57411 5.29832 3.31106L6.5128 1.01754Z" stroke="#333333" stroke-width="0.7" stroke-miterlimit="10"/>
</svg>
